HIERARCHY
ROOT Hips
{
	OFFSET	0	0	0
	CHANNELS 6  Xposition Yposition Zposition Xrotation Yrotation Zrotation
	JOINT Spine
	{
		OFFSET	0	6.43035	1.29592
		CHANNELS 3  Xrotation Yrotation Zrotation
		JOINT Spine1
		{
			OFFSET	0	11.0515	-1.97348
			CHANNELS 3  Xrotation Yrotation Zrotation
			JOINT Spine2
			{
				OFFSET	0	8.37743	0.897934
				CHANNELS 3  Xrotation Yrotation Zrotation
				JOINT Spine3
				{
					OFFSET	0	10.0253	2.97996
					CHANNELS 3  Xrotation Yrotation Zrotation
					JOINT Spine4
					{
						OFFSET	0	14.8406	-1.51958
						CHANNELS 3  Xrotation Yrotation Zrotation
						JOINT Neck
						{
							OFFSET	0	7.0848	-4.96331
							CHANNELS 3  Xrotation Yrotation Zrotation
							JOINT Head
							{
								OFFSET	0	8.50571	-2.54579
								CHANNELS 3  Xrotation Yrotation Zrotation
								End Site
								{
									OFFSET	0	17.7416	-0.858465
								}
							}
						}
					}
					JOINT LeftShoulder
					{
						OFFSET	-4.26272	18.0376	-8.50571
						CHANNELS 3  Xrotation Yrotation Zrotation
						JOINT LeftArm
						{
							OFFSET	-9.26857	-2.54579	3.26613
							CHANNELS 3  Xrotation Yrotation Zrotation
							JOINT LeftForeArm
							{
								OFFSET	-28.2392	-1.28889	2.01568
								CHANNELS 3  Xrotation Yrotation Zrotation
								JOINT LeftHand
								{
									OFFSET	-22.9751	-1.58771	1.63994
									CHANNELS 3  Xrotation Yrotation Zrotation
									End Site
									{
										OFFSET	-8.38477	-0.579434	0.598457
									}
								}
							}
						}
					}
					JOINT RightShoulder
					{
						OFFSET	4.26272	18.0376	-8.50571
						CHANNELS 3  Xrotation Yrotation Zrotation
						JOINT RightArm
						{
							OFFSET	9.26857	-2.54579	3.26613
							CHANNELS 3  Xrotation Yrotation Zrotation
							JOINT RightForeArm
							{
								OFFSET	28.2392	-1.28889	2.01568
								CHANNELS 3  Xrotation Yrotation Zrotation
								JOINT RightHand
								{
									OFFSET	22.9751	-1.58771	1.63994
									CHANNELS 3  Xrotation Yrotation Zrotation
									End Site
									{
										OFFSET	8.38477	-0.579434	0.598457
									}
								}
							}
						}
					}
				}
			}
		}
	}
	JOINT LeftUpLeg
	{
		OFFSET	-8.79432	-3.21518	-0.64796
		CHANNELS 3  Xrotation Yrotation Zrotation
		JOINT LeftLeg
		{
			OFFSET	-1.93242	-37.8649	-0.591911
			CHANNELS 3  Xrotation Yrotation Zrotation
			JOINT LeftFoot
			{
				OFFSET	-1.8889	-34.8184	2.99439
				CHANNELS 3  Xrotation Yrotation Zrotation
				JOINT LeftToeBase
				{
					OFFSET	0	-4.3392	-11.5249
					CHANNELS 3  Xrotation Yrotation Zrotation
					End Site
					{
						OFFSET	0	-1.73568	-6.94272
					}
				}
			}
		}
	}
	JOINT RightUpLeg
	{
		OFFSET	8.79432	-3.21518	-0.64796
		CHANNELS 3  Xrotation Yrotation Zrotation
		JOINT RightLeg
		{
			OFFSET	1.93242	-37.8649	-0.591911
			CHANNELS 3  Xrotation Yrotation Zrotation
			JOINT RightFoot
			{
				OFFSET	1.8889	-34.8184	2.99439
				CHANNELS 3  Xrotation Yrotation Zrotation
				JOINT RightToeBase
				{
					OFFSET	0	-4.3392	-11.5249
					CHANNELS 3  Xrotation Yrotation Zrotation
					End Site
					{
						OFFSET	0	-1.73568	-6.94272
					}
				}
			}
		}
	}
}
MOTION
Frames: 20
Frame Time: 0.020408
 0 -5.59411 3.22603 -0 0 -0 -0 0 -0 -0 0 -0 -0 0 -0 -0 0 -0 -0 0 -0 -0 0 -0 -0 0 -0 -0 0 -0 -0 0 -0 -0 0 -0 -0 0 -0 -0 0 -0 -0 0 -0 -0 0 -0 -0 0 -0 -0 0 -0 -0 0 -0 -0 0 -0 -0 0 -0 -0 0 -0 -0 0 -0 -0 0 -0 -0 0 -0
 224.241 78.4547 -271.766 25.0286 -68.7912 27.7721 0.000516019 0.00423692 -6.94391 169.459 179.992 168.427 168.114 179.975 168.427 168.926 179.996 173.056 5.92238 -0.238955 -2.30228 26.9789 17.3365 4.90068 8.20439 10.3734 2.88877 1.17169 -28.3075 2.54527 121.428 -151.05 168.654 179.847 -150.241 178.296 -0 -13.7218 -13.6866 172.962 -171.204 -167.478 38.7848 36.2354 -51.5297 158.259 173.949 -175.514 -0 -11.2854 42.8293 0.906791 -29.8623 -36.1347 179.768 -170.333 179.747 39.3881 0.019136 -11.4764 0.0272351 0 0 173.313 -126.867 135.517 139.741 -170.509 179.952 23.637 0.117176 9.7573 0.0269036 0 0
 225.058 78.5249 -273.016 26.471 -73.3816 28.375 0.000104457 0.000930861 -6.40267 169.815 179.998 169.329 168.443 179.994 169.329 169.091 179.999 173.597 6.21117 -0.231014 -2.12169 27.5392 17.2088 4.48012 8.35928 10.638 2.75348 1.69001 -28.4394 3.67208 120.742 -146.569 160.057 179.845 -150.893 177.387 -0 -13.587 -13.8891 173.535 -173.225 -168.237 38.7976 35.9212 -52.4111 157.707 173.525 -175.442 -0 -11.1736 43.3427 178.493 -151.408 143.191 179.828 -170.389 179.598 39.9902 0.00196805 -11.4872 0.0267504 0 0 172.925 -126.226 135.836 139.187 -170.343 -179.78 23.1017 -0.00392593 9.65103 0.0236719 0 0
 225.438 78.4584 -274.632 24.6462 -75.1762 26.6328 180 -179.996 173.865 170.032 -179.992 169.775 168.59 -179.976 169.775 169.036 -179.996 173.865 6.75236 -0.240548 -2.03081 29.1771 16.1954 2.70636 8.80543 11.7623 2.0947 1.55865 -28.3414 3.38649 117.534 -142.728 153.245 179.881 -150.05 178.334 -0 -13.6938 -13.4272 173.66 -174.184 -168.341 38.3397 35.2383 -52.1627 157.242 173.421 -175.196 -0 -11.1802 43.8696 177.502 -151.359 142.333 0.402844 -9.64684 -0.331 40.3237 -0.0273944 -11.4723 0.0266667 0 0 173.645 -126.181 137.338 139.395 -170.506 -179.795 22.0933 -0.016462 9.54032 0.0190683 0 0
 226.26 77.6377 -274.686 24.3634 -72.3503 26.2713 0.00092938 0.00855445 -6.20046 170.142 179.983 169.666 168.696 179.949 169.666 169.071 179.991 173.8 6.87367 -0.247464 -2.05196 29.6791 14.8453 0.935225 8.93673 13.2275 1.33917 1.47754 -27.4183 3.21057 114.562 -140.657 147.932 179.946 -148.31 178.588 -0 -13.9973 -12.8469 173.581 -172.483 -168.426 36.5208 33.4649 -50.973 156.886 173.891 -175.384 -0 -11.3735 44.4429 176.979 -151.018 141.579 0.897415 -9.66931 -0.309413 39.6984 -0.0250651 -11.455 0.0264681 0 0 174.174 -126.392 139.101 140.565 -170.757 179.992 21.2433 -0.0589511 9.40798 0.0155913 0 0
 227.418 77.0845 -274.601 25.2969 -68.8948 28.355 180 -179.998 173.479 170.25 -179.997 169.132 168.794 -179.99 169.132 169.135 -179.998 173.479 6.92949 -0.262361 -2.15769 29.8894 13.9145 -0.372878 9.00514 14.468 0.771626 1.35035 -27.1449 2.93397 111.962 -139.199 143.799 0.029873 -33.2943 -1.2575 -0 -14.2708 -12.2686 173.665 -171.168 -168.766 34.7087 31.7309 -50.4435 156.539 174.3 -175.589 -0 -11.5001 44.8758 176.364 -150.869 141.57 1.37077 -9.63878 -0.208566 40.0272 -0.0334563 -11.4591 0.0269193 0 0 173.063 -127.161 138.002 141.058 -170.991 179.887 21.953 -0.0346173 9.28251 0.0131671 0 0
 228.561 76.6899 -274.945 26.764 -66.396 29.6062 0.00022364 0.00195418 -6.52862 170.425 179.996 169.119 168.98 179.988 169.119 169.277 179.998 173.471 6.927 -0.262585 -2.16032 29.8317 13.2474 -1.45493 9.00597 15.69 0.301151 1.4161 -26.9832 3.07688 110.116 -137.953 141.31 0.151547 -34.8168 -1.28912 -0 -14.5795 -11.8066 173.756 -169.958 -169.106 32.8182 29.9265 -50.289 156.152 174.686 -175.487 -0 -11.6407 45.6585 175.351 -151.041 140.597 1.76796 -9.69434 -0.198708 38.5952 -0.0346936 -11.4241 0.0257427 0 0 171.98 -127.895 137.191 141.663 -171.271 -179.936 22.2175 0.00866467 9.14651 0.0100468 0 0
 229.321 76.2772 -275.115 27.1502 -64.9428 29.2081 0.000472597 0.0042708 -6.31454 170.695 179.992 169.476 169.259 179.975 169.476 169.476 179.996 173.685 6.9736 -0.255667 -2.08927 29.7977 12.7113 -2.43745 9.02265 16.8539 -0.122385 1.43342 -26.9263 3.11452 109.85 -137.597 140.328 0.295433 -35.9058 -1.28478 -0 -14.8271 -11.3499 174.126 -168.842 -169.921 31.3471 28.3241 -50.4951 155.544 174.281 -175.116 -0 -11.6879 46.4168 174.69 -151.02 139.2 2.48575 -9.65284 -0.14634 38.4418 0.0519678 -11.4605 0.0254896 0 0 171.015 -128.513 137.598 142.577 -171.644 179.913 23.5721 0.0104057 8.99478 0.00850754 0 0
 229.923 75.7325 -274.524 26.1182 -64.357 27.8147 0.00111313 0.0107622 -5.90508 171.096 179.979 170.158 169.664 179.936 170.158 169.744 179.989 174.095 7.10311 -0.243492 -1.95325 29.8707 12.5864 -3.11258 9.07048 17.8674 -0.399701 1.48407 -26.9567 3.2247 110.209 -137.884 141.097 0.448697 -36.8702 -1.29256 -0 -15.0881 -10.8317 174.979 -167.814 -171.533 30.3006 26.7822 -51.4651 154.828 173.26 -174.497 -0 -11.64 47.1674 174.156 -150.796 138.243 3.07196 -9.74386 -0.0225143 38.9398 0.029219 -11.4677 0.0254181 0 0 169.473 -128.864 137.254 143.894 -171.996 179.668 24.6437 0.0518853 8.8209 0.00595414 0 0
 230.603 75.2098 -274.381 24.9405 -63.5952 26.158 180 -179.998 174.49 171.431 -179.997 170.816 169.984 -179.99 170.816 169.949 -179.998 174.49 7.26345 -0.232308 -1.82206 30.0644 12.2726 -3.8555 9.16139 18.7681 -0.719371 1.49864 -26.9975 3.25638 111.087 -138.518 142.509 0.612527 -37.7198 -1.3417 -0 -15.3468 -10.4149 175.664 -166.725 -172.819 29.2322 25.3325 -52.0911 154.066 171.952 -173.786 -0 -11.5525 47.8421 173.601 -150.754 137.549 3.61608 -9.77418 -0.0356936 38.8054 0.0574276 -11.4755 0.0250738 0 0 167.785 -128.918 135.88 144.968 -172.181 179.701 26.5818 0.020373 8.68405 0.00413848 0 0
 230.955 74.9492 -273.915 23.8395 -62.9675 24.6455 180 -179.999 174.787 171.816 -179.997 171.312 170.369 -179.992 171.312 170.205 -179.999 174.787 7.39256 -0.223651 -1.72324 30.1043 11.9001 -4.56118 9.20953 19.5939 -1.02928 1.54697 -27.6214 3.36155 112.761 -139.514 144.9 0.798034 -38.1871 -1.24967 -0 -15.4958 -10.054 176.21 -165.975 -173.803 28.5151 24.2451 -52.7912 153.411 170.624 -173.188 -0 -11.5138 48.3171 173.192 -150.6 137.526 4.49718 -9.79217 -0.218496 39.2222 0.0563353 -11.4847 0.0249651 0 0 166.881 -128.012 134.511 146.258 -172.312 179.906 28.2912 -0.0307287 8.50134 0.00107883 0 0
 230.815 74.9431 -274.171 23.0427 -63.1834 22.871 179.998 -179.98 175.168 172.305 -179.96 171.947 170.829 -179.879 171.947 170.48 -179.98 175.168 7.68182 -0.215339 -1.59608 30.4715 11.5377 -5.10053 9.35082 20.0579 -1.27935 1.59737 -28.825 3.47008 114.283 -140.458 147.822 1.04669 -38.385 -1.0049 -0 -15.5629 -9.7306 176.183 -166.801 -173.678 27.8621 23.6313 -53.0958 153.026 169.812 -173.111 -0 -11.4905 48.1512 173.245 -150.212 138.226 6.14854 -9.77688 0.123958 39.152 0.0619517 -11.4164 0.0246074 0 0 166.413 -127.108 132.879 148.261 -172.762 -179.881 31.8617 0.0566387 8.23545 0.00207485 0 0
 229.622 75.3265 -273.715 18.2951 -63.9227 18.1667 179.997 -179.964 175.381 172.876 -179.929 172.302 171.395 -179.786 172.302 170.869 -179.964 175.381 7.85739 -0.210518 -1.52509 30.3882 11.0435 -5.46254 9.34561 20.208 -1.4577 1.67187 -28.9378 3.63189 115.87 -141.456 149.617 1.29365 -38.2011 -0.84036 -0 -15.5744 -9.57459 176.133 -168.48 -173.438 27.2997 23.1967 -53.2117 152.781 169.538 -172.806 -0 -11.4716 47.686 173.589 -149.571 139.012 8.84715 -9.77771 0.0424996 39.5006 -0.0598787 -11.3676 0.0250181 0 0 166.171 -125.678 132.586 150.26 -172.665 -179.898 35.9474 -0.256838 8.16533 0.000675041 0 0
 229.577 75.3225 -274.151 15.673 -64.1999 15.6737 179.997 -179.965 175.562 173.372 -179.931 172.603 171.89 -179.794 172.603 171.192 -179.965 175.562 8.04095 -0.206973 -1.46477 30.3485 10.012 -6.16607 9.37526 20.3965 -1.81237 1.54811 -28.8857 3.36288 117.472 -143.09 151.433 1.5607 -38.4942 -0.590724 -0 -15.644 -9.26384 175.818 -169.649 -172.781 26.3773 22.7246 -53.1021 152.546 169.255 -172.743 -0 -11.3747 47.0049 174.044 -148.949 138.303 11.1972 -9.66994 0.115386 39.3105 -0.0535416 -11.3678 0.0254475 0 0 166.24 -124.408 132.568 151.345 -173.015 -179.995 35.6275 -0.0166414 7.92 179.997 180 -180
 228.752 75.431 -274.12 12.2142 -64.2576 12.8589 179.998 -179.969 175.704 173.718 -179.939 172.84 172.248 -179.817 172.84 171.45 -179.969 175.704 8.09099 -0.201587 -1.41773 30.0706 9.19161 -6.6484 9.32052 20.4567 -2.05429 1.63236 -28.7699 3.54625 118.749 -144.487 152.419 1.81549 -38.9119 -0.514009 -0 -15.7537 -9.00888 175.519 -171.164 -172.103 25.6321 22.3545 -53.0782 152.445 169.114 -172.648 -0 -11.3151 46.302 175.31 -147.455 138.005 11.355 -9.66088 0.0716673 39.1832 -0.0703867 -11.3763 0.0247767 0 0 166.328 -122.857 132.339 152.941 -173.07 -179.951 35.7187 -0.0521579 7.78114 179.992 180 -180
 228.014 76.062 -273.957 9.52178 -64.7526 9.33853 179.998 -179.976 175.828 174.082 -179.952 173.046 172.622 -179.856 173.046 171.711 -179.976 175.828 8.16788 -0.197621 -1.37659 29.8829 8.8179 -6.62761 9.25763 20.0778 -2.06177 1.27051 -28.6267 2.75978 120.422 -147.073 153.485 2.08535 -39.2775 -0.282024 -0 -15.8718 -8.78362 175.353 -172.295 -171.69 24.7479 21.7713 -53.4068 152.487 169.481 -172.618 -0 -11.3178 45.3196 176.616 -146.29 138.436 11.4833 -9.56604 -0.0410776 39.0954 -0.0214059 -11.4476 0.0240504 0 0 167.788 -121.431 132.796 154.152 -173.259 179.998 34.5098 -0.0637859 7.52325 179.988 180 -180
 227.391 75.9945 -274.399 7.09521 -65.7006 5.33167 0.000216673 0.00331831 -3.7359 174.342 179.993 173.773 172.894 179.98 173.773 171.88 179.997 176.264 8.25665 -0.178862 -1.23239 29.8577 8.78728 -6.17325 9.21445 19.2744 -1.87556 1.27191 -28.7733 2.76265 121.806 -149.176 154.83 2.25441 -37.6087 -0.226701 -0 -15.5018 -8.49402 175.157 -173.28 -171.232 24.2983 21.5689 -53.4311 152.67 169.583 -172.739 -0 -11.2641 44.1413 177.606 -145.314 138.424 11.45 -9.58625 -0.0847091 38.732 -0.0369585 -11.4619 0.0240726 0 0 171.377 -119.568 133.18 155.146 -173.524 179.814 35.4936 -0.0330849 7.20416 179.985 180 -180
 226.202 75.8725 -274.087 5.6801 -65.3964 3.16237 0.000246688 0.00406007 -3.47699 174.566 179.992 174.205 173.109 179.976 174.205 172.002 179.996 176.523 8.39474 -0.169227 -1.14658 29.9821 8.72358 -5.52619 9.20597 18.082 -1.61861 1.57614 -28.7423 3.42404 122.23 -150.012 155.536 2.43526 -35.6283 -0.265454 -0 -15.0832 -8.19008 175.037 -174.103 -170.924 23.9307 21.3422 -53.2887 152.826 169.765 -172.976 -0 -11.2341 43.1324 178.415 -144.836 138.558 11.5641 -9.54661 -0.290572 38.8171 -0.0047292 -11.4717 0.0237576 0 0 175.569 -118.587 133.33 154.974 -173.469 -179.986 35.6258 0.0143382 6.96932 179.98 180 -180
 224.874 75.6491 -272.674 3.34183 -63.5487 1.18849 2.51512e-05 0.000431115 -3.33884 174.745 179.999 174.435 173.287 179.997 174.435 172.122 180 176.661 8.45412 -0.163643 -1.10085 29.9626 9.4375 -4.22121 9.12749 16.5617 -1.04352 1.48656 -28.7482 3.22925 122.369 -149.675 156.076 2.66018 -34.4547 -0.295128 -0 -14.8547 -7.96254 175.076 -174.776 -170.929 23.4283 20.9807 -53.5439 152.99 169.907 -173.115 -0 -11.217 42.2458 0.142928 -36.4361 -40.2016 11.7407 -9.56547 -0.252695 40.3863 -0.0383397 -11.4761 0.0241713 0 0 179.974 -118.103 133.942 154.641 -173.298 -179.895 35.2788 -0.0352524 6.81478 179.975 180 -180
 223.967 76.4176 -271.348 0.332581 -62.175 -0.734633 179.999 -179.983 176.654 174.95 -179.966 174.424 173.492 -179.898 174.424 172.278 -179.983 176.654 8.48249 -0.16453 -1.10306 29.7659 9.53946 -3.30436 9.02549 15.133 -0.666899 1.45124 -28.8007 3.1524 122.749 -149.206 156.014 2.9054 -33.0078 -0.304877 -0 -14.5144 -8.11988 175.232 -175.749 -171.125 22.8265 20.9919 -54.2487 152.928 170.001 -173.06 -0 -10.9889 41.4133 1.86286 -37.3828 -38.9053 11.7888 -9.50808 -0.355254 41.2542 -0.0549719 -11.4819 0.0238391 0 0 3.91125 -62.4976 -44.7637 153.674 -173.102 -179.859 34.0891 -0.0655738 6.69941 179.971 180 -180
